<svg xmlns="http://www.w3.org/2000/svg" xmlns:svg="http://www.w3.org/2000/svg" style="enable-background:new 0 0 42.5 63" id="clemoji3_1f61f" width="19" height="27.833" version="1.1" viewBox="0 0 42.5 63" xml:space="preserve"><g id="g10" transform="matrix(1.25,0,0,-1.25,-2.5,62.5)"><g id="gfeuille" transform="translate(0,1)"><path id="path4138-2" fill="#479F00" d="M35.842,42.028c-7.072,2.898-15.156-0.481-18.056-7.555c-0.056-0.147-0.112-0.295-0.166-0.445c0.273-0.141,0.552-0.27,0.833-0.391c7.072-2.902,15.156,0.48,18.056,7.552c0.002,0,0.002,0,0.002,0.002c0.058,0.147,0.112,0.295,0.164,0.444C36.402,41.775,36.123,41.906,35.842,42.028L35.842,42.028z"/><path id="path4138-2-5" fill="#479F00" d="M5.883,38.317c5.113,2.886,11.597,1.081,14.484-4.03c0.058-0.106,0.112-0.214,0.167-0.325c-0.195-0.131-0.394-0.258-0.597-0.377c-5.111-2.888-11.596-1.084-14.482,4.03c-0.002,0-0.002,0-0.002,0c-0.058,0.106-0.112,0.214-0.166,0.322C5.482,38.07,5.68,38.197,5.883,38.317z"/></g><g id="g20" transform="translate(36,19)"><path id="path22" d="m 0,0 c 0,-9.389 -7.611,-17 -17,-17 -9.389,0 -17,7.611 -17,17 0,9.389 7.611,17 17,17 C -7.611,17 0,9.389 0,0" style="fill:#faac2c;fill-opacity:1;fill-rule:nonzero;stroke:none"/></g><g id="g24" transform="translate(16,20)"><path id="path26" d="m 0,0 c 0,-1.657 -0.895,-3 -2,-3 -1.104,0 -2,1.343 -2,3 0,1.657 0.896,3 2,3 1.105,0 2,-1.343 2,-3" style="fill:#992500;fill-opacity:1;fill-rule:nonzero;stroke:none"/></g><g id="g28" transform="translate(26,20)"><path id="path30" d="m 0,0 c 0,-1.657 -0.895,-3 -2,-3 -1.104,0 -2,1.343 -2,3 0,1.657 0.896,3 2,3 1.105,0 2,-1.343 2,-3" style="fill:#992500;fill-opacity:1;fill-rule:nonzero;stroke:none"/></g><g id="g32" transform="translate(24.4854,8.1211)"><path id="path34" d="m 0,0 c -0.012,0.044 -1.146,4.379 -5.485,4.379 -4.341,0 -5.475,-4.335 -5.485,-4.379 -0.053,-0.213 0.043,-0.431 0.231,-0.544 0.188,-0.112 0.433,-0.086 0.596,0.06 0.01,0.007 1.014,0.863 4.658,0.863 3.589,0 4.617,-0.83 4.656,-0.863 0.095,-0.09 0.219,-0.137 0.344,-0.137 0.084,0 0.169,0.021 0.246,0.064 C -0.043,-0.445 0.055,-0.218 0,0" style="fill:#992500;fill-opacity:1;fill-rule:nonzero;stroke:none"/></g><g id="g36" transform="translate(30,25)"><path id="path38" d="m 0,0 c -5.554,0 -7.802,4.367 -7.895,4.553 -0.247,0.494 -0.046,1.095 0.448,1.342 0.493,0.246 1.092,0.047 1.34,-0.444 C -6.033,5.306 -4.287,2 0,2 0.553,2 1,1.552 1,1 1,0.448 0.553,0 0,0" style="fill:#992500;fill-opacity:1;fill-rule:nonzero;stroke:none"/></g><g id="g40" transform="translate(8,25)"><path id="path42" d="M 0,0 C -0.552,0 -1,0.448 -1,1 -1,1.552 -0.552,2 0,2 5.083,2 5.996,5.12 6.033,5.253 6.178,5.781 6.725,6.101 7.252,5.962 7.782,5.823 8.103,5.289 7.97,4.757 7.921,4.563 6.704,0 0,0" style="fill:#992500;fill-opacity:1;fill-rule:nonzero;stroke:none"/></g></g></svg>