<svg xmlns="http://www.w3.org/2000/svg" xmlns:svg="http://www.w3.org/2000/svg" style="enable-background:new 0 0 42.5 63" id="clemoji3_1f613" width="19" height="27.833" version="1.1" viewBox="0 0 42.5 63" xml:space="preserve"><g id="g10" transform="matrix(1.25,0,0,-1.25,-2.5,62.5)"><g id="gfeuille" transform="translate(0,1)"><path id="path4138-2" fill="#479F00" d="M35.842,42.028c-7.072,2.898-15.156-0.481-18.056-7.555c-0.056-0.147-0.112-0.295-0.166-0.445c0.273-0.141,0.552-0.27,0.833-0.391c7.072-2.902,15.156,0.48,18.056,7.552c0.002,0,0.002,0,0.002,0.002c0.058,0.147,0.112,0.295,0.164,0.444C36.402,41.775,36.123,41.906,35.842,42.028L35.842,42.028z"/><path id="path4138-2-5" fill="#479F00" d="M5.883,38.317c5.113,2.886,11.597,1.081,14.484-4.03c0.058-0.106,0.112-0.214,0.167-0.325c-0.195-0.131-0.394-0.258-0.597-0.377c-5.111-2.888-11.596-1.084-14.482,4.03c-0.002,0-0.002,0-0.002,0c-0.058,0.106-0.112,0.214-0.166,0.322C5.482,38.07,5.68,38.197,5.883,38.317z"/></g><g id="g20" transform="translate(36,19)"><path id="path22" d="m 0,0 c 0,-9.389 -7.611,-17 -17,-17 -9.388,0 -17,7.611 -17,17 0,9.388 7.612,17 17,17 C -7.611,17 0,9.388 0,0" style="fill:#faac2c;fill-opacity:1;fill-rule:nonzero;stroke:none"/></g><g id="g24" transform="translate(29.457,19.2031)"><path id="path26" d="m 0,0 c -0.059,0.135 -1.499,3.297 -4.457,3.297 -2.957,0 -4.397,-3.162 -4.457,-3.297 -0.092,-0.207 -0.032,-0.449 0.144,-0.591 0.175,-0.142 0.426,-0.147 0.611,-0.014 0.012,0.009 1.262,0.902 3.702,0.902 2.426,0 3.674,-0.881 3.702,-0.901 0.088,-0.066 0.194,-0.099 0.298,-0.099 0.11,0 0.221,0.037 0.312,0.109 C 0.032,-0.452 0.093,-0.208 0,0" style="fill:#992500;fill-opacity:1;fill-rule:nonzero;stroke:none"/></g><g id="g28" transform="translate(18.457,19.2031)"><path id="path30" d="m 0,0 c -0.06,0.135 -1.499,3.297 -4.457,3.297 -2.957,0 -4.397,-3.162 -4.457,-3.297 -0.092,-0.207 -0.032,-0.449 0.144,-0.591 0.176,-0.142 0.427,-0.147 0.61,-0.014 0.013,0.009 1.262,0.902 3.703,0.902 2.426,0 3.674,-0.881 3.702,-0.901 0.088,-0.066 0.194,-0.099 0.298,-0.099 0.11,0 0.221,0.037 0.312,0.109 C 0.033,-0.452 0.092,-0.208 0,0" style="fill:#992500;fill-opacity:1;fill-rule:nonzero;stroke:none"/></g><g id="g32" transform="translate(14,9)"><path id="path34" d="M 0,0 C 0,0 1,4 5,4 9,4 10,0 10,0 10,0 9,1 5,1 1,1 0,0 0,0" style="fill:#992500;fill-opacity:1;fill-rule:nonzero;stroke:none"/></g><g id="g36" transform="translate(12,26)"><path id="path38" d="m 0,0 c 0,-2.762 -2.238,-5 -5,-5 -2.761,0 -5,2.238 -5,5 0,2.762 4,10 5,10 1,0 5,-7.238 5,-10" style="fill:#3daeff;fill-opacity:.64;fill-rule:nonzero;stroke:none"/></g></g></svg>